<?xml version="1.0" encoding="UTF-8"?>
<svg version="1.1" xmlns="http://www.w3.org/2000/svg" width="256" height="256">
<path d="M0 0 C8.38830565 6.1169736 15.14579023 13.54899948 17 24 C17.82535597 34.28520516 17.22475855 43.20651971 11.01171875 51.7265625 C6.74792291 56.71940115 2.1180506 61.37006875 -4 64 C-4.99 64 -5.98 64 -7 64 C-7 64.66 -7 65.32 -7 66 C-5.700625 66.0825 -4.40125 66.165 -3.0625 66.25 C8.59917868 67.58224185 18.81004303 74.77180075 26.21484375 83.58984375 C35.66962207 96.35482892 36.5182442 110.66848909 36.44604492 125.98291016 C36.43747258 128.75887808 36.46648736 131.53282468 36.49804688 134.30859375 C36.49965792 136.09635356 36.49908321 137.88411696 36.49609375 139.671875 C36.50732773 140.48976501 36.51856171 141.30765503 36.53013611 142.15032959 C36.46149053 147.86909929 35.19301214 152.21512171 32 157 C26.94380253 161.8095537 22.76227897 162.15131847 16.04370117 162.16113281 C15.23360092 162.16609772 14.42350067 162.17106262 13.58885193 162.17617798 C10.90688224 162.19079146 8.22497172 162.19760046 5.54296875 162.203125 C3.67832945 162.20887739 1.81369017 162.21463511 -0.0509491 162.22039795 C-3.96243566 162.2309058 -7.87390169 162.23674979 -11.78540039 162.24023438 C-16.7923622 162.24571678 -21.79905176 162.26974031 -26.80592823 162.29820633 C-30.65871468 162.31685003 -34.51143579 162.32203925 -38.36426353 162.32357025 C-40.20981013 162.3265937 -42.05535566 162.33461185 -43.90085793 162.34775543 C-46.4859538 162.36485119 -49.07038778 162.3629271 -51.65551758 162.35644531 C-52.41469482 162.3656601 -53.17387207 162.37487488 -53.95605469 162.3843689 C-58.71888892 162.34704668 -61.95318915 161.51260873 -66 159 C-71.60202416 153.08675227 -72.3093153 147.76821789 -72.30078125 139.96484375 C-72.30506638 139.09034073 -72.3093515 138.21583771 -72.31376648 137.31483459 C-72.31949949 135.4648627 -72.32001763 133.61486826 -72.31567383 131.76489258 C-72.31253773 128.97111114 -72.33590214 126.17841445 -72.36132812 123.38476562 C-72.42367201 105.95614328 -69.90436607 91.40830867 -57.5234375 78.328125 C-50.25278512 71.62021661 -41.47324609 66.34069716 -31.4375 65.8125 C-30.2309375 65.9053125 -30.2309375 65.9053125 -29 66 C-29 65.34 -29 64.68 -29 64 C-29.66 63.95875 -30.32 63.9175 -31 63.875 C-38.4445549 61.70367149 -44.69316175 55.26944809 -49 49 C-53.7346011 40.18721742 -54.33363457 30.74766099 -52.41015625 21.015625 C-49.48818063 11.48217458 -42.57288717 3.70215248 -33.875 -1.10546875 C-23.40481965 -6.10061729 -10.13086911 -5.67389516 0 0 Z " fill="#0D77F9" transform="translate(210,73)"/>
<path d="M0 0 C1.31481857 -0.00997513 2.62963715 -0.01995026 3.98429871 -0.03022766 C5.42953479 -0.03112334 6.87477103 -0.03178697 8.32000732 -0.03224182 C9.8514496 -0.03986858 11.38288807 -0.04829697 12.9143219 -0.0574646 C17.06533956 -0.07936693 21.21628357 -0.08820287 25.36735249 -0.09329104 C27.96420725 -0.09693999 30.56104287 -0.10318288 33.15789032 -0.11029243 C42.22740014 -0.13477316 51.29685288 -0.14783562 60.36639404 -0.15138245 C68.8041038 -0.15501554 77.24144933 -0.18489813 85.67904782 -0.22678703 C92.93617784 -0.26154502 100.19318747 -0.27693185 107.45040011 -0.27762848 C111.77900866 -0.27841949 116.10724602 -0.28707649 120.43576813 -0.31562614 C124.51042004 -0.34190129 128.58439552 -0.34395997 132.65909386 -0.3279705 C134.14814168 -0.32616342 135.63722924 -0.33277952 137.12619209 -0.34878922 C147.30240953 -0.45146924 155.11734698 0.74979499 163.04168701 7.55540466 C163.65012451 8.28759216 164.25856201 9.01977966 164.88543701 9.77415466 C165.51449951 10.50634216 166.14356201 11.23852966 166.79168701 11.99290466 C169.65193683 16.08698774 170.6388883 19.6040693 170.58074951 24.57493591 C170.57108154 26.03963318 170.57108154 26.03963318 170.56121826 27.53392029 C170.53608154 29.0450238 170.53608154 29.0450238 170.51043701 30.58665466 C170.50141357 31.61339294 170.49239014 32.64013123 170.48309326 33.69798279 C170.45960032 36.22347393 170.42373152 38.74884459 170.38543701 41.27415466 C165.10543701 40.28415466 159.82543701 39.29415466 154.38543701 38.27415466 C153.69793701 31.08665466 153.69793701 31.08665466 153.51947021 28.85154724 C152.92420538 23.68397852 151.35848358 21.50155155 147.38543701 18.27415466 C144.38540732 17.5327158 144.38540732 17.5327158 141.08526611 17.64596558 C139.81508133 17.63331161 138.54489655 17.62065765 137.23622131 17.60762024 C135.836086 17.61893559 134.43595475 17.63076303 133.03582764 17.64305115 C131.55552819 17.63791088 130.07523485 17.63062879 128.59495544 17.62136841 C124.58035033 17.60285935 120.56640963 17.61578935 116.5518322 17.63545871 C112.34877633 17.65185086 108.14576236 17.64303153 103.94268799 17.63793945 C96.8845967 17.63341911 89.82677047 17.6492845 82.76873779 17.67723083 C74.61100223 17.7092826 66.45374472 17.70926689 58.29597521 17.69201607 C50.44546044 17.6761471 42.59512077 17.68288688 34.74461365 17.69995308 C31.40497674 17.70682207 28.06548026 17.70579272 24.72584534 17.69840813 C20.7923937 17.69074159 16.85948548 17.70288283 12.92612648 17.73025703 C11.48338751 17.73713818 10.04059775 17.73724166 8.59786034 17.7300415 C6.62710429 17.7213402 4.65628428 17.73974913 2.68560791 17.75949097 C1.58318504 17.76229789 0.48076218 17.76510481 -0.65506744 17.76799679 C-4.32596014 18.3958238 -5.99421082 19.66999988 -8.61456299 22.27415466 C-9.94418723 26.26302739 -9.77034934 30.09661394 -9.7756958 34.25608826 C-9.78066071 35.17508408 -9.78562561 36.0940799 -9.79074097 37.04092407 C-9.80536083 40.08482102 -9.81216402 43.12866586 -9.81768799 46.17259216 C-9.82343921 48.28624981 -9.82919695 50.39990745 -9.83496094 52.51356506 C-9.84547017 56.94711043 -9.85131347 61.38063766 -9.85479736 65.81419373 C-9.86028446 71.49608349 -9.88431753 77.17773391 -9.91276932 82.85954857 C-9.93138883 87.22613731 -9.93660092 91.59266828 -9.93813324 95.95929337 C-9.94116142 98.0540714 -9.94919549 100.14884838 -9.96231842 102.24358749 C-9.97936571 105.17372128 -9.9775019 108.1032688 -9.9710083 111.03343201 C-9.98022308 111.89906265 -9.98943787 112.7646933 -9.99893188 113.65655518 C-9.96654437 118.3199186 -9.7515082 121.55668564 -6.61456299 125.27415466 C-3.68341613 127.05877904 -1.48109846 127.52861568 1.92858887 127.55262756 C2.83440201 127.56379105 3.74021515 127.57495453 4.67347717 127.5864563 C5.65962509 127.58861649 6.64577301 127.59077667 7.6618042 127.59300232 C8.70602036 127.60304794 9.75023651 127.61309357 10.82609558 127.6234436 C14.27816212 127.65433844 17.73015087 127.67132844 21.18231201 127.68821716 C23.57556836 127.70692372 25.96881808 127.72649674 28.36206055 127.74690247 C34.66174414 127.79828368 40.96144912 127.83787746 47.26123047 127.87504578 C53.68940551 127.91504781 60.11749108 127.9661575 66.54559326 128.01634216 C79.15881059 128.11317241 91.77207919 128.19793169 104.38543701 128.27415466 C104.04915283 128.87816101 103.71286865 129.48216736 103.36639404 130.10447693 C102.92150635 130.90425964 102.47661865 131.70404236 102.01824951 132.52806091 C101.57884033 133.31769226 101.13943115 134.10732361 100.68670654 134.92088318 C92.04205083 150.55424836 91.30351528 165.39995154 90.82293701 182.96165466 C90.77962623 184.45320013 90.73600853 185.94473671 90.69207764 187.43626404 C90.58633228 191.04879896 90.48471735 194.6614356 90.38543701 198.27415466 C78.4592471 198.34362241 66.53310522 198.3969496 54.6067543 198.42959118 C49.06904206 198.4452564 43.5314681 198.46651045 37.99383545 198.50047302 C32.65110665 198.5330357 27.30851098 198.55100123 21.96569061 198.55878639 C19.9258998 198.56433544 17.88611638 198.5751712 15.84638214 198.59134483 C12.99237746 198.61307786 10.138925 198.6161233 7.28485107 198.61473083 C6.43896423 198.62551666 5.59307739 198.63630249 4.72155762 198.64741516 C1.348291 198.62957099 -1.13916584 198.53255208 -4.13537598 196.9039917 C-6.78892044 193.98019302 -6.20998722 190.89064326 -6.05596924 187.12962341 C-5.1610346 181.34026745 -2.16817673 177.11582906 2.44793701 173.56712341 C9.17553233 169.51331598 17.80451053 170.76088058 25.38543701 170.96165466 C27.03514281 170.98676804 28.68488542 171.00957585 30.33465576 171.03001404 C34.35250017 171.08477237 38.36855899 171.17087259 42.38543701 171.27415466 C42.38543701 167.97415466 42.38543701 164.67415466 42.38543701 161.27415466 C41.01927246 161.29510193 39.65310791 161.31604919 38.24554443 161.33763123 C33.13351088 161.41052179 28.02152244 161.45613181 22.90911865 161.49388123 C20.70461275 161.51388552 18.50015916 161.54109789 16.2958374 161.57591248 C13.11072818 161.62492524 9.92632585 161.64723593 6.74090576 161.66477966 C5.76961227 161.6854248 4.79831879 161.70606995 3.79759216 161.7273407 C-5.09334432 161.73019788 -13.3256114 159.79392857 -20.05206299 153.71165466 C-26.95073645 145.85718279 -28.21210155 136.73819756 -28.11627197 126.61155701 C-28.12167496 125.50274673 -28.12707794 124.39393646 -28.13264465 123.25152588 C-28.14505599 119.62076855 -28.12869285 115.99081589 -28.11065674 112.36009216 C-28.11081188 109.8190456 -28.11230336 107.2779988 -28.11506653 104.73695374 C-28.11644706 99.42632108 -28.10438896 94.11596719 -28.08111572 88.80540466 C-28.05448549 82.68691147 -28.05277176 76.56879759 -28.06450409 70.45026624 C-28.07532267 64.53369082 -28.06896068 58.61722995 -28.05494881 52.70065689 C-28.05044624 50.19612143 -28.05008701 47.69157485 -28.05401421 45.18703842 C-28.05693703 41.68378373 -28.04036824 38.18114051 -28.01861572 34.67796326 C-28.02311737 33.6522673 -28.02761902 32.62657135 -28.03225708 31.5697937 C-27.92948779 21.56637589 -25.50576357 13.66836259 -18.61456299 6.27415466 C-12.80297276 1.6733124 -7.35845955 0.03003772 0 0 Z M66.38543701 139.27415466 C64.06061508 142.17609051 64.06061508 142.17609051 64.32293701 145.89915466 C65.13611123 149.23944576 65.13611123 149.23944576 67.07293701 151.27415466 C70.25711694 152.65109734 72.09468502 152.25437866 75.38543701 151.27415466 C77.70582952 149.67388397 78.28513442 148.54640456 79.26043701 145.89915466 C79.43009886 142.33625583 78.75147865 140.9359515 76.38543701 138.27415466 C71.97872345 136.80525014 70.29082361 136.6705636 66.38543701 139.27415466 Z " fill="#0D77F9" transform="translate(37.61456298828125,20.725845336914063)"/>
<path d="M0 0 C6.68522219 3.76986214 10.56935616 8.22703398 13.28515625 15.33984375 C14.84008894 23.39722223 14.21436077 30.54700038 9.90625 37.6640625 C6.86856465 41.64413208 3.33882145 43.67645561 -1.02734375 45.90234375 C-0.26550781 46.04929688 0.49632812 46.19625 1.28125 46.34765625 C11.85523835 48.6446275 19.16559957 52.6018097 25.53125 61.5078125 C31.07340436 70.71469765 29.97265625 78.78486478 29.97265625 89.90234375 C3.24265625 89.90234375 -23.48734375 89.90234375 -51.02734375 89.90234375 C-51.02734375 65.24174248 -51.02734375 65.24174248 -41.86328125 55.65234375 C-35.49965363 49.58658806 -29.67345629 47.64860293 -21.02734375 45.90234375 C-21.54683594 45.56203125 -22.06632812 45.22171875 -22.6015625 44.87109375 C-28.7311029 40.61100652 -32.64972712 36.03519364 -35.02734375 28.90234375 C-35.92521761 20.47515622 -34.9862392 13.88705363 -30.02734375 6.90234375 C-22.28295474 -1.60060728 -10.85328996 -3.93519288 0 0 Z " fill="#0D77F9" transform="translate(120.02734375,49.09765625)"/>
</svg>
